<svg width="40" height="40" viewBox="0 0 40 40" fill="none" xmlns="http://www.w3.org/2000/svg">
<path d="M17.3486 20L9.92673 12.5781C9.57449 12.2265 9.37635 11.7493 9.37591 11.2516C9.37548 10.7539 9.57277 10.2764 9.92438 9.92418C10.276 9.57193 10.7531 9.3738 11.2509 9.37336C11.7486 9.37292 12.2261 9.57021 12.5783 9.92183L20.0002 17.3437L27.422 9.92183C27.7743 9.56959 28.252 9.3717 28.7502 9.3717C29.2483 9.3717 29.726 9.56959 30.0783 9.92183C30.4305 10.2741 30.6284 10.7518 30.6284 11.25C30.6284 11.7481 30.4305 12.2258 30.0783 12.5781L22.6564 20L30.0783 27.4218C30.4305 27.7741 30.6284 28.2518 30.6284 28.75C30.6284 29.2481 30.4305 29.7258 30.0783 30.0781C29.726 30.4303 29.2483 30.6282 28.7502 30.6282C28.252 30.6282 27.7743 30.4303 27.422 30.0781L20.0002 22.6562L12.5783 30.0781C12.2261 30.4303 11.7483 30.6282 11.2502 30.6282C10.752 30.6282 10.2743 30.4303 9.92204 30.0781C9.5698 29.7258 9.37191 29.2481 9.37191 28.75C9.37191 28.2518 9.5698 27.7741 9.92204 27.4218L17.3486 20Z" fill="black"/>
</svg>
