<?xml version="1.0" encoding="UTF-8"?><svg id="a" xmlns="http://www.w3.org/2000/svg" viewBox="0 0 754.41 448.07"><defs><style>.b{fill:#fff;}</style></defs><path class="b" d="M381.95,268.18s-.09-1.89-.54-5.31c-.22-1.65-.52-3.64-.93-5.96-2.19-12.07-7.43-32.59-19.95-55.38-26.44-48.08-85.28-106.28-216.03-116.53,0,0,89.73-17.71,184.94,49.13-.65-1.84-43.71-120.84-150.47-116.29C71.4,22.41,9.62,8.13,0,0,0,0,45.02,187.64,180.19,198.86c0,0,42.54,6.33,92.26-12.83,19.82-7.65,42.27-4.07,58.72,9.39,2.27,1.85,4.59,3.9,6.95,6.16l.23,.24c13.16,12.6,27.59,31.81,41.17,61.03,.32,.67,.63,1.34,.95,2.02,.48,1.09,.97,2.19,1.47,3.3h.01Zm40.95-66.66h-22.49c-12.52,22.79-17.77,43.31-19.93,55.38-2.18-12.07-7.43-32.59-19.95-55.38h-22.48l.07,.07,.23,.25c2.64,2.72,23.74,53.2,29.07,101.03,1.51,13.48,1.76,26.75-.01,38.68v3.26h28.95s-.66-16.55-.23-38.2c.65-31.98,3.72-75.08,14.91-92.28,3.3-5.09,7.21-9.48,11.85-12.81h0Zm-26.77,105.09l-28.71-3.74c1.51,13.48,1.76,26.75-.01,38.68v78.32h28.95v-113.23l-.23-.03Zm.39,107.97v-127.72h-29.12v146.78l29.12-19.06Zm-124.07-228.53l6.98-11.12,21.99-7.6,39.17,20.79,16.79,30.38-5.72,16.3c-15.74-59.25-79.21-48.75-79.21-48.75h0Zm0,0l6.98-11.12,21.99-7.6,39.17,20.79,16.79,30.38-5.72,16.3c-15.74-59.25-79.21-48.75-79.21-48.75h0Zm0,0l6.98-11.12,21.99-7.6,39.17,20.79,16.79,30.38-5.72,16.3c-15.74-59.25-79.21-48.75-79.21-48.75h0Zm94.95,247.47h29.12v-27.29h-29.12v27.29Zm81-214.98l-5.61-8.56-15.71-4.81-25.57,19.15-9.44,25.55,5.1,12.82c6.68-48.8,51.23-44.15,51.23-44.15h0Zm3.2-78.56h200.11v-24.4h-200.11v24.4Zm-12.2-12.2c0,6.74,5.46,12.2,12.2,12.2s12.2-5.46,12.2-12.2-5.46-12.2-12.2-12.2-12.2,5.46-12.2,12.2Zm200.11,0c0,6.74,5.46,12.2,12.2,12.2s12.2-5.46,12.2-12.2-5.46-12.2-12.2-12.2-12.2,5.46-12.2,12.2ZM492.06,60.34h250.14v-24.4h-250.14v24.4Zm-12.2-12.2c0,6.74,5.46,12.2,12.2,12.2s12.2-5.46,12.2-12.2-5.46-12.2-12.2-12.2-12.2,5.46-12.2,12.2Zm250.15,0c0,6.74,5.46,12.2,12.2,12.2s12.2-5.46,12.2-12.2-5.46-12.2-12.2-12.2-12.2,5.46-12.2,12.2ZM411.13,219.6h150.09v-24.4h-150.09v24.4Zm137.88-12.2c0,6.74,5.46,12.2,12.2,12.2s12.2-5.46,12.2-12.2-5.46-12.2-12.2-12.2-12.2,5.46-12.2,12.2Zm-150.08,0c0,6.74,5.46,12.2,12.2,12.2s12.2-5.46,12.2-12.2-5.46-12.2-12.2-12.2-12.2,5.46-12.2,12.2Zm-31.53,226.11h29.11c0,8.04-6.52,14.56-14.56,14.56s-14.55-6.52-14.55-14.56Z"/></svg>