<svg width="32" height="32" viewBox="0 0 32 32" fill="none" xmlns="http://www.w3.org/2000/svg">
<path d="M8 9V29.75C8 29.8163 8.02634 29.8799 8.07322 29.9268C8.12011 29.9737 8.1837 30 8.25 30H14.5044C14.5791 30 14.6528 29.9833 14.7202 29.9511C14.7876 29.9189 14.8469 29.872 14.8938 29.8138C14.9407 29.7557 14.9739 29.6877 14.9911 29.6151C15.0083 29.5424 15.009 29.4667 14.9931 29.3937L13.0444 22H14.5C14.6326 22 14.7598 21.9473 14.8536 21.8536C14.9473 21.7598 15 21.6326 15 21.5V9H8ZM28.2612 11.6594L28 11.5938V2.25C28 2.1837 27.9737 2.12011 27.9268 2.07322C27.8799 2.02634 27.8163 2 27.75 2H25.0938C25.0332 2.00024 24.9748 2.02245 24.9294 2.0625L17 9V19L24.9294 25.9375C24.9748 25.9776 25.0332 25.9998 25.0938 26H27.75C27.8163 26 27.8799 25.9737 27.9268 25.9268C27.9737 25.8799 28 25.8163 28 25.75V16.4062L28.2612 16.3406C28.8625 16.1775 30 15.4794 30 14C30 12.5206 28.8625 11.8225 28.2612 11.6594ZM6 9H3.25C3.1837 9 3.12011 9.02634 3.07322 9.07322C3.02634 9.12011 3 9.1837 3 9.25V11.4744C2.90537 11.5586 2.81681 11.6495 2.735 11.7463C2.4 12.145 2 12.8588 2 14C2 15.2619 2.49313 16.0706 3 16.5263V18.75C3 18.8163 3.02634 18.8799 3.07322 18.9268C3.12011 18.9737 3.1837 19 3.25 19H6V9Z" fill="black"/>
</svg>
